<?xml version="1.0" encoding="utf-8"?>
<!-- Generator: Adobe Illustrator 25.0.0, SVG Export Plug-In . SVG Version: 6.00 Build 0)  -->
<svg version="1.1" id="Layer_1" xmlns="http://www.w3.org/2000/svg" xmlns:xlink="http://www.w3.org/1999/xlink" x="0px" y="0px"
	 viewBox="0 0 143 28" style="enable-background:new 0 0 143 28;" xml:space="preserve">
<style type="text/css">
	.st0{fill:#231F20;}
</style>
<g>
	<path class="st0" d="M66.1,8.6v1.2C64.5,8.6,62.8,8,61,8c-2.5,0-4.7,0.8-6.6,2.5c-2.2,2-3.3,4.4-3.3,7.5c0,2.6,0.8,4.9,2.5,6.7
		c2,2.2,4.4,3.3,7.3,3.3c1.8,0,3.4-0.6,5-1.8v1.2h4.8V8.6H66.1z M65,21.7c-1,1.3-2.3,1.9-3.9,1.9c-1.4,0-2.6-0.5-3.6-1.5
		c-1-1-1.5-2.4-1.5-4.2c0-1.5,0.4-2.7,1.1-3.7c1-1.3,2.3-1.9,3.9-1.9c1.5,0,2.7,0.5,3.6,1.4c1,1,1.5,2.4,1.5,4.1
		C66.1,19.5,65.7,20.7,65,21.7"/>
	<path class="st0" d="M89.4,10.5C88,8.9,85.8,8,83.6,8c-1.6,0-3,0.5-4.4,1.6v-1h-4.8v18.7h4.8V18c0-2.2,0.3-3.6,0.9-4.3
		c0.7-0.9,1.8-1.3,3.1-1.3c1.1,0,1.9,0.3,2.5,1c0.6,0.7,0.9,2.1,0.9,4.2v9.8l4.8,0V17.3C91.5,14.1,90.9,12.1,89.4,10.5"/>
	<path class="st0" d="M108.3,8.6l0,1.2c-1.6-1.2-3.3-1.8-5-1.8c-2.5,0-4.7,0.8-6.6,2.5c-2.2,2-3.3,4.4-3.3,7.5
		c0,2.6,0.8,4.9,2.5,6.7c2,2.2,4.4,3.3,7.3,3.3c1.8,0,3.4-0.6,5-1.8v1.2l4.8,0V8.6H108.3z M107.3,21.7c-1,1.3-2.3,1.9-3.9,1.9
		c-1.4,0-2.6-0.5-3.6-1.5c-1-1-1.5-2.4-1.5-4.2c0-1.5,0.4-2.7,1.1-3.7c1-1.3,2.3-1.9,3.9-1.9c1.5,0,2.7,0.5,3.6,1.4
		c1,1,1.5,2.4,1.5,4.1C108.4,19.5,108,20.7,107.3,21.7"/>
	<path class="st0" d="M126.4,11.8l-2.5-1c-1.6-0.6-2.6-1.4-2.9-2.2H116c0.3,2.8,2.3,4.9,5.8,6.3l2.4,0.9c1.2,0.5,2.1,0.9,2.7,1.4
		c0.7,0.6,1.1,1.3,1.1,2.2c0,1.1-0.4,2-1.1,2.8c-0.8,0.8-1.8,1.3-3,1.3c-2.2,0-3.6-1.3-4.3-3.9c-0.1-0.2-0.1-0.5-0.2-1l-4.6,1.2
		c0.2,0.8,0.3,1.3,0.4,1.5c0.5,1.8,1.4,3.3,2.8,4.5c1.7,1.4,3.6,2.1,6,2.1c2.4,0,4.4-0.7,6.1-2.1c2-1.7,3-3.8,3-6.4
		c0-1.8-0.6-3.3-1.7-4.6C130.2,13.7,128.6,12.7,126.4,11.8"/>
	<path class="st0" d="M124.5,4.4c1.1,0,2,0.4,2.9,1.2c0.5,0.5,0.8,0.9,1.5,2l4.4-1.1c-0.2-0.4-0.3-0.8-0.5-1.2c0,0-0.7-1.5-1.9-2.8
		C129,0.8,127,0,124.5,0c0,0-92.3,0-92.3,0v4.4C32.2,4.4,124.4,4.4,124.5,4.4"/>
	<path class="st0" d="M140.3,25.8h-0.9l-0.9-1.7c-0.1,0-0.2,0-0.3,0h-0.2v1.7h-0.8v-4.5h1c0.1,0,0.1,0,0.2,0c0.2,0,0.5,0,0.8,0
		c0.1,0,0.2,0,0.4,0.1c0.1,0,0.2,0.1,0.3,0.2c0.1,0.1,0.2,0.2,0.3,0.3c0.1,0.1,0.2,0.2,0.2,0.4c0.1,0.1,0.1,0.3,0.1,0.5
		c0,0.1,0,0.2-0.1,0.4c0,0.1-0.1,0.2-0.2,0.4c-0.1,0.1-0.2,0.2-0.3,0.3c-0.1,0.1-0.3,0.2-0.5,0.2L140.3,25.8z M137.9,23.4h0.3
		c0.1,0,0.2,0,0.3,0c0.1,0,0.2,0,0.3,0c0.1,0,0.2,0,0.3-0.1c0.1,0,0.2-0.1,0.2-0.1c0.1,0,0.1-0.1,0.2-0.2c0-0.1,0.1-0.2,0.1-0.3
		c0-0.1,0-0.2-0.1-0.3c-0.1-0.2-0.3-0.3-0.6-0.3c-0.2,0-0.4,0-0.7,0h-0.3V23.4z"/>
	<path class="st0" d="M138.6,28c-2.4,0-4.4-2-4.4-4.4c0-2.4,2-4.4,4.4-4.4c2.4,0,4.4,2,4.4,4.4C143,26,141,28,138.6,28 M138.6,20
		c-2,0-3.6,1.6-3.6,3.6s1.6,3.6,3.6,3.6c2,0,3.6-1.6,3.6-3.6S140.6,20,138.6,20"/>
	<path class="st0" d="M49.3,27.4V17.3c0-3.2-0.6-5.2-2.1-6.8C45.8,9,43.6,8,41.4,8c-1.6,0-3,0.5-4.4,1.6l0-1h-4.8l0,13.8l-4.6-1.7
		V2.7V0h-7.1L0,26.3L4.6,28l6.5-8.3l21.1,7.7v0l4.8,0V18c0-2.2,0.3-3.6,0.9-4.3c0.7-0.9,1.8-1.3,3.1-1.3c1.1,0,1.9,0.3,2.5,1
		c0.6,0.7,0.9,2.1,0.9,4.2v9.8H49.3z M23,19.1l-8.9-3.2L23,4.5V19.1z"/>
</g>
</svg>
