<svg width="15" height="16" viewBox="0 0 15 16" fill="none" xmlns="http://www.w3.org/2000/svg">
<path d="M1.44656 13.1265C1.54143 14.3676 2.56912 15.3321 3.81817 15.3321H12.0476C13.2888 15.3321 14.3244 14.3676 14.4113 13.1265L14.7512 8.42281H1.11454L1.44656 13.1265Z" fill="white"/>
<path d="M14.356 4.2646H12.2136C12.0081 3.5136 11.7077 2.81793 11.3282 2.21712C10.4586 0.825783 9.22541 0.0273438 7.92894 0.0273438C6.64037 0.0273438 5.39923 0.825783 4.53755 2.21712C4.15809 2.81793 3.85769 3.5136 3.64425 4.2646H1.50981C1.13826 4.2646 0.837854 4.58082 0.869475 4.95237L1.0592 7.63228H14.8066L14.9963 4.95237C15.02 4.58082 14.7275 4.2646 14.356 4.2646ZM5.13836 4.2646C5.29646 3.79028 5.502 3.34758 5.73916 2.96813C6.33997 2.00368 7.13841 1.4503 7.92894 1.4503C8.71947 1.4503 9.51791 2.00368 10.1266 2.96813C10.3638 3.34758 10.5693 3.79028 10.7274 4.2646H5.13836Z" fill="white"/>
</svg>
