<?xml version="1.0" encoding="utf-8"?>
<!-- Generator: Adobe Illustrator 25.0.0, SVG Export Plug-In . SVG Version: 6.00 Build 0)  -->
<svg version="1.1" id="Layer_1" xmlns="http://www.w3.org/2000/svg" xmlns:xlink="http://www.w3.org/1999/xlink" x="0px" y="0px"
	 viewBox="0 0 281.5 202" style="enable-background:new 0 0 281.5 202;" xml:space="preserve">
<style type="text/css">
	.st0{fill:#303030;}
	.st1{fill:#808080;}
	.st2{fill:#CCCCCC;}
	.st3{fill:#FF5F17;}
	.st4{fill:#666666;}
	.st5{fill:#333333;}
	.st6{fill:#FFFFFF;}
</style>
<polygon class="st0" points="281.2,146.9 89.9,201 0.3,132.6 178.3,84.8 "/>
<polygon class="st1" points="231.4,34.7 98.9,63.6 42.3,25.1 168.5,1 "/>
<polygon class="st2" points="99.1,172.5 231.5,137.7 231.5,67.8 99.1,100.9 "/>
<polygon class="st0" points="125,166.2 212.6,143.1 212.6,85.6 125,107.4 "/>
<polygon class="st3" points="98.9,97.3 235,63.3 235,37.5 98.9,67.8 "/>
<polygon class="st0" points="38.2,26 38.2,53 38.2,55.4 38.2,129 99.1,172.5 99.1,97.3 99.1,94.8 99.1,67.8 "/>
<polygon class="st4" points="98.9,67.8 98.9,97.3 99.1,97.2 99.1,67.8 "/>
<polygon class="st5" points="108.7,65.6 108.7,94.8 109.2,94.7 109.2,65.5 "/>
<polygon class="st5" points="118.8,63.4 118.8,92.3 119.2,92.2 119.2,63.3 "/>
<polygon class="st5" points="128.9,61.2 128.9,89.8 129.3,89.7 129.3,61.1 "/>
<polygon class="st5" points="138.9,58.9 138.9,87.3 139.4,87.2 139.4,58.8 "/>
<polygon class="st5" points="148.1,56.9 148.1,85 148.5,84.9 148.5,56.8 "/>
<polygon class="st5" points="157.3,54.8 157.3,82.7 157.7,82.6 157.7,54.7 "/>
<polygon class="st5" points="166.4,52.8 166.4,80.4 166.9,80.3 166.9,52.7 "/>
<polygon class="st5" points="175.6,50.8 175.6,78.1 176,78 176,50.7 "/>
<polygon class="st5" points="183.8,48.9 183.8,76.1 184.3,75.9 184.3,48.8 "/>
<polygon class="st5" points="192.1,47.1 192.1,74 192.5,73.9 192.5,47 "/>
<polygon class="st5" points="200.3,45.3 200.3,71.9 200.8,71.8 200.8,45.2 "/>
<polygon class="st5" points="207.7,43.6 207.7,70.1 208.1,70 208.1,43.5 "/>
<polygon class="st5" points="215,42 215,68.3 215.5,68.2 215.5,41.9 "/>
<polygon class="st5" points="222.4,40.3 222.4,66.4 222.8,66.3 222.8,40.2 "/>
<polygon class="st5" points="228.8,38.9 228.8,64.8 229.2,64.7 229.2,38.8 "/>
<path class="st1" d="M168.7,129.9h-0.9v-5.2h0.9V129.9z M206.5,87.1v51l-33.2,10.1v-45l-2.5,1v47.1l38.3-11.2V86.4L206.5,87.1z"/>
<path class="st1" d="M78.2,99c-0.4-0.9-1.1-1.4-1.5-1.1l-21.9,14.6c-0.4,0.3-0.4,1.2,0,2.1c0.2,0.4,0.4,0.7,0.7,1
	c0.2,0.2,0.5,0.3,0.7,0.1l21.9-14.6C78.6,100.9,78.6,99.9,78.2,99"/>
<path class="st1" d="M55.6,105.2l18.8-12.5c0.4-0.3,0.4-1.2,0-2.1s-1.1-1.4-1.5-1.1l-18.8,12.5c-0.4,0.3-0.4,1.2,0,2.1
	c0.2,0.4,0.4,0.7,0.7,1C55.1,105.2,55.4,105.3,55.6,105.2"/>
<path class="st1" d="M54.9,94.8c0.2,0.2,0.5,0.3,0.7,0.1l11.9-7.9c0.4-0.3,0.4-1.2,0-2.1s-1.1-1.4-1.5-1.1l-3.3,2.3l-3-6.4
	c-0.4-0.9-1.1-1.4-1.5-1.1s-0.4,1.2,0,2.1l3,6.4l-2.4,1.6l-2.6-5.7c-0.4-0.9-1.1-1.4-1.5-1.1s-0.4,1.2,0,2.1l2.6,5.7l-3.1,2
	c-0.4,0.3-0.4,1.2,0,2.1C54.3,94.2,54.5,94.6,54.9,94.8"/>
<path class="st1" d="M65.6,78.7c0.2,0.4,0.4,0.7,0.8,1c0.2,0.2,0.5,0.2,0.8,0.1l6.6-4.6c0.4-0.3,0.4-1.3,0-2.1s-1.1-1.4-1.5-1.1
	l-6.6,4.6C65.2,76.8,65.2,77.8,65.6,78.7"/>
<path class="st1" d="M78.4,109.9c-0.4-0.9-1.1-1.4-1.5-1.1L58,121.3c-0.4,0.3-0.4,1.2,0,2.1c0.2,0.4,0.4,0.7,0.7,1
	c0.2,0.2,0.5,0.3,0.7,0.1L78.4,112C78.8,111.8,78.8,110.8,78.4,109.9"/>
<path class="st1" d="M78.3,121.3c-0.4-0.9-1.1-1.4-1.5-1.1l-3.3,2.2c-0.1,0-0.1,0-0.2,0.1c-0.1,0-0.1,0.1-0.2,0.2l-3.5,2.3
	c-0.1,0-0.1,0-0.2,0.1c-0.1,0-0.1,0.1-0.2,0.2l-3.7,2.4c-0.4,0.3-0.4,1.2,0,2.1c0.2,0.4,0.4,0.7,0.7,1c0.2,0.2,0.5,0.3,0.7,0.1
	l3.1-2l2.6,5.8c0.2,0.4,0.4,0.7,0.7,1c0.2,0.2,0.5,0.3,0.7,0.1c0.4-0.3,0.4-1.2,0-2.1l-2.6-5.8l2.4-1.6l2.7,6c0.2,0.4,0.4,0.7,0.7,1
	c0.2,0.2,0.5,0.3,0.7,0.1c0.4-0.3,0.4-1.2,0-2.1l-2.7-6l2.8-1.9C78.7,123.2,78.7,122.2,78.3,121.3"/>
<path class="st1" d="M63.7,73.3c0.2,0.4,0.4,0.7,0.8,1c0.2,0.2,0.5,0.2,0.8,0.1c0.4-0.3,0.4-1.2,0-2.1l-3.4-7.3
	c-0.4-0.9-1.1-1.4-1.5-1.1c-0.4,0.3-0.4,1.2,0,2.1L63.7,73.3z"/>
<path class="st1" d="M66.5,71.4c0.2,0.4,0.4,0.7,0.8,1c0.2,0.2,0.5,0.2,0.8,0.1c0.4-0.3,0.4-1.2,0-2.1l-0.7-1.5
	c-0.4-0.9-1.1-1.4-1.5-1.1s-0.4,1.2,0,2.1L66.5,71.4z"/>
<path class="st6" d="M156.7,66.8c-1-0.8-2.4-1.1-3.7-0.8c-1.1,0.3-2,0.9-2.8,1.7l0-0.6l-3,0.7l0,9.1l-3-0.4l0-13.7l-4.8,1.1
	l-14.6,20.9l3.3,0.1l4.8-6.9l14.4,2v0l3-0.7l0-6.1c-0.1-1,0.1-2,0.6-3c0.5-0.7,1.2-1.1,2-1.3c0.5-0.2,1.1-0.1,1.6,0.3
	c0.4,0.4,0.6,1.2,0.6,2.6l0,6.4l3-0.7l0-6.6C158,68.8,157.6,67.6,156.7,66.8z M141.2,76l-6.4-0.9l1.7-2.4l4.8-7l0,7.7L141.2,76z"/>
<path class="st6" d="M168.4,62.9l0,0.8c-1-0.6-2.1-0.7-3.2-0.5c-1.6,0.4-3.1,1.3-4.2,2.6c-1.3,1.5-2.1,3.4-2.1,5.3
	c-0.1,1.5,0.5,3,1.6,4c1.2,1.1,3,1.5,4.6,1.1c1.2-0.3,2.3-1,3.2-1.9l0,0.8l3-0.7l0-12.2L168.4,62.9z M167.7,71.5
	c-0.5,0.9-1.4,1.6-2.5,1.8c-0.8,0.2-1.6,0.1-2.2-0.4c-0.7-0.6-1-1.6-0.9-2.5c0-0.9,0.2-1.8,0.7-2.6c0.5-0.9,1.4-1.5,2.4-1.8
	c0.8-0.2,1.6-0.1,2.3,0.4c0.7,0.6,1,1.5,0.9,2.5C168.5,69.8,168.2,70.7,167.7,71.5L167.7,71.5z"/>
<path class="st6" d="M183.2,60.7c-1-0.8-2.4-1.1-3.7-0.8c-1.1,0.3-2,0.8-2.8,1.7l0-0.6l-3,0.7l0,12.2l3-0.7l0-6.1
	c-0.1-1,0.1-2,0.6-2.9c0.5-0.7,1.2-1.1,2-1.3c0.5-0.2,1.1-0.1,1.6,0.3c0.4,0.4,0.6,1.2,0.6,2.6l0,6.3l3-0.7l0-6.5
	C184.5,62.7,184.1,61.5,183.2,60.7z"/>
<path class="st6" d="M195.1,56.8l0,0.8c-1-0.5-2.1-0.7-3.2-0.5c-1.6,0.4-3.1,1.3-4.2,2.6c-1.3,1.4-2.1,3.3-2.1,5.3
	c-0.1,1.5,0.5,3,1.6,4c1.2,1.1,3,1.5,4.6,1.1c1.2-0.3,2.3-1,3.2-1.9l0,0.8l3-0.7l0-12.1L195.1,56.8z M194.4,65.4
	c-0.5,0.9-1.4,1.6-2.5,1.8c-0.8,0.2-1.6,0.1-2.2-0.4c-0.7-0.6-1-1.5-0.9-2.5c0-0.9,0.2-1.8,0.7-2.5c0.5-0.9,1.4-1.5,2.4-1.8
	c0.8-0.2,1.6-0.1,2.3,0.4c0.7,0.6,1,1.5,0.9,2.4C195.1,63.7,194.9,64.6,194.4,65.4z"/>
<path class="st6" d="M206.5,56.3l-1.6-0.3c-1-0.2-1.6-0.5-1.9-1l-3.1,0.7c0.2,1.8,1.4,2.8,3.7,3.2l1.5,0.2c0.6,0.1,1.2,0.2,1.7,0.5
	c0.5,0.3,0.7,0.7,0.7,1.3c0,0.7-0.3,1.4-0.7,2c-0.5,0.6-1.2,1.1-1.9,1.2c-1.4,0.3-2.3-0.3-2.7-1.9c0-0.1-0.1-0.3-0.1-0.6l-2.9,1.5
	c0.1,0.5,0.2,0.8,0.2,0.9c0.2,1,0.9,1.9,1.7,2.5c1.1,0.7,2.5,0.9,3.8,0.5c1.5-0.3,2.8-1.1,3.9-2.3c1.2-1.2,1.9-2.8,1.9-4.5
	c0.1-1-0.3-2-1.1-2.7C208.7,56.8,207.6,56.4,206.5,56.3z"/>
<path class="st6" d="M200.4,52.9l4.9-1.1v0c0,0,0,0,0,0c0.6-0.2,1.3,0,1.8,0.3c0.3,0.3,0.7,0.7,0.9,1.1l0,0h0l0,0l0,0l2.7-1.3
	c-0.1-0.2-0.2-0.5-0.3-0.7l0,0l0,0c0,0,0,0,0,0l0,0c-0.1-0.2-0.2-0.4-0.4-0.6l0,0c-0.1-0.1-0.2-0.3-0.3-0.4c0,0-0.1-0.1-0.1-0.1
	c-1.1-1.1-2.8-1.6-4.3-1.1c0,0,0,0-0.1,0v0l-58,13l0,2.9L200.4,52.9z"/>
<polyline class="st0" points="50.7,60.5 44.1,133.2 86.9,146.4 83.6,74.4 68.7,59.8 "/>
</svg>
